<svg width="18" height="20" viewBox="0 0 18 20" fill="none" xmlns="http://www.w3.org/2000/svg">
<g clip-path="url(#clip0)">
<path d="M15.873 1.25H1.90476C1.39959 1.25 0.915104 1.44754 0.557892 1.79917C0.20068 2.15081 0 2.62772 0 3.125L0 16.875C0 17.3723 0.20068 17.8492 0.557892 18.2008C0.915104 18.5525 1.39959 18.75 1.90476 18.75H7.35119V12.8004H4.85119V10H7.35119V7.86563C7.35119 5.43789 8.81944 4.09687 11.0683 4.09687C12.1452 4.09687 13.2714 4.28594 13.2714 4.28594V6.66875H12.0306C10.8079 6.66875 10.4266 7.41562 10.4266 8.18164V10H13.156L12.7194 12.8004H10.4266V18.75H15.873C16.3782 18.75 16.8627 18.5525 17.2199 18.2008C17.5771 17.8492 17.7778 17.3723 17.7778 16.875V3.125C17.7778 2.62772 17.5771 2.15081 17.2199 1.79917C16.8627 1.44754 16.3782 1.25 15.873 1.25V1.25Z" fill="white"/>
</g>
<defs>
<clipPath id="clip0">
<rect width="17.7778" height="20" fill="white"/>
</clipPath>
</defs>
</svg>
