<svg width="18" height="18" viewBox="0 0 18 18" fill="none" xmlns="http://www.w3.org/2000/svg">
<path d="M8.89583 4.26465C6.37202 4.26465 4.33631 6.26855 4.33631 8.75293C4.33631 11.2373 6.37202 13.2412 8.89583 13.2412C11.4196 13.2412 13.4554 11.2373 13.4554 8.75293C13.4554 6.26855 11.4196 4.26465 8.89583 4.26465ZM8.89583 11.6709C7.26488 11.6709 5.93155 10.3623 5.93155 8.75293C5.93155 7.14355 7.26091 5.83496 8.89583 5.83496C10.5308 5.83496 11.8601 7.14355 11.8601 8.75293C11.8601 10.3623 10.5268 11.6709 8.89583 11.6709V11.6709ZM14.7054 4.08105C14.7054 4.66309 14.2292 5.12793 13.6419 5.12793C13.0506 5.12793 12.5784 4.65918 12.5784 4.08105C12.5784 3.50293 13.0546 3.03418 13.6419 3.03418C14.2292 3.03418 14.7054 3.50293 14.7054 4.08105ZM17.7252 5.14355C17.6577 3.74121 17.3323 2.49902 16.2887 1.47559C15.249 0.452148 13.9871 0.131836 12.5625 0.0615234C11.0942 -0.0205078 6.69345 -0.0205078 5.2252 0.0615234C3.80456 0.12793 2.54266 0.448242 1.49901 1.47168C0.455357 2.49512 0.133929 3.7373 0.0625 5.13965C-0.0208333 6.58496 -0.0208333 10.917 0.0625 12.3623C0.12996 13.7646 0.455357 15.0068 1.49901 16.0303C2.54266 17.0537 3.8006 17.374 5.2252 17.4443C6.69345 17.5264 11.0942 17.5264 12.5625 17.4443C13.9871 17.3779 15.249 17.0576 16.2887 16.0303C17.3284 15.0068 17.6538 13.7646 17.7252 12.3623C17.8085 10.917 17.8085 6.58887 17.7252 5.14355V5.14355ZM15.8284 13.9131C15.5188 14.6787 14.9196 15.2686 14.1379 15.5771C12.9673 16.0342 10.1895 15.9287 8.89583 15.9287C7.60218 15.9287 4.82044 16.0303 3.65377 15.5771C2.87599 15.2725 2.27679 14.6826 1.96329 13.9131C1.49901 12.7607 1.60615 10.0264 1.60615 8.75293C1.60615 7.47949 1.50298 4.74121 1.96329 3.59277C2.27282 2.82715 2.87202 2.2373 3.65377 1.92871C4.8244 1.47168 7.60218 1.57715 8.89583 1.57715C10.1895 1.57715 12.9712 1.47559 14.1379 1.92871C14.9157 2.2334 15.5149 2.82324 15.8284 3.59277C16.2927 4.74512 16.1855 7.47949 16.1855 8.75293C16.1855 10.0264 16.2927 12.7646 15.8284 13.9131Z" fill="white"/>
</svg>
