<svg width="117" height="50" viewBox="0 0 117 50" fill="none" xmlns="http://www.w3.org/2000/svg">
<g clip-path="url(#clip0)">
<g filter="url(#filter0_d)">
<path d="M2.15945 11.7428C2.15945 10.2571 2.48445 8.9357 3.13445 7.77855C3.78445 6.60713 4.68723 5.69998 5.84279 5.05713C7.01279 4.39998 8.33445 4.07141 9.80779 4.07141C11.6133 4.07141 13.1589 4.54284 14.4445 5.4857C15.73 6.42855 16.5895 7.71427 17.0228 9.34284H12.9495C12.6461 8.71427 12.2128 8.2357 11.6495 7.90713C11.1006 7.57855 10.4722 7.41427 9.76445 7.41427C8.62334 7.41427 7.6989 7.80713 6.99112 8.59284C6.28334 9.37855 5.92945 10.4286 5.92945 11.7428C5.92945 13.0571 6.28334 14.1071 6.99112 14.8928C7.6989 15.6786 8.62334 16.0714 9.76445 16.0714C10.4722 16.0714 11.1006 15.9071 11.6495 15.5786C12.2128 15.25 12.6461 14.7714 12.9495 14.1428H17.0228C16.5895 15.7714 15.73 17.0571 14.4445 18C13.1589 18.9286 11.6133 19.3928 9.80779 19.3928C8.33445 19.3928 7.01279 19.0714 5.84279 18.4286C4.68723 17.7714 3.78445 16.8643 3.13445 15.7071C2.48445 14.55 2.15945 13.2286 2.15945 11.7428ZM24.795 19.4571C23.6106 19.4571 22.5417 19.2071 21.5883 18.7071C20.6495 18.2071 19.9056 17.4928 19.3567 16.5643C18.8222 15.6357 18.555 14.55 18.555 13.3071C18.555 12.0786 18.8295 11 19.3784 10.0714C19.9272 9.12855 20.6783 8.40713 21.6317 7.90713C22.585 7.40713 23.6539 7.15713 24.8383 7.15713C26.0228 7.15713 27.0917 7.40713 28.045 7.90713C28.9983 8.40713 29.7495 9.12855 30.2983 10.0714C30.8472 11 31.1217 12.0786 31.1217 13.3071C31.1217 14.5357 30.84 15.6214 30.2767 16.5643C29.7278 17.4928 28.9695 18.2071 28.0017 18.7071C27.0483 19.2071 25.9795 19.4571 24.795 19.4571ZM24.795 16.2857C25.5028 16.2857 26.1022 16.0286 26.5933 15.5143C27.0989 15 27.3517 14.2643 27.3517 13.3071C27.3517 12.35 27.1061 11.6143 26.615 11.1C26.1383 10.5857 25.5461 10.3286 24.8383 10.3286C24.1161 10.3286 23.5167 10.5857 23.04 11.1C22.5633 11.6 22.325 12.3357 22.325 13.3071C22.325 14.2643 22.5561 15 23.0183 15.5143C23.495 16.0286 24.0872 16.2857 24.795 16.2857ZM48.5138 7.19998C50.0161 7.19998 51.2077 7.64998 52.0888 8.54998C52.9844 9.44998 53.4322 10.7 53.4322 12.3V19.2857H49.7488V12.7928C49.7488 12.0214 49.5394 11.4286 49.1205 11.0143C48.7161 10.5857 48.1527 10.3714 47.4305 10.3714C46.7083 10.3714 46.1377 10.5857 45.7188 11.0143C45.3144 11.4286 45.1122 12.0214 45.1122 12.7928V19.2857H41.4288V12.7928C41.4288 12.0214 41.2194 11.4286 40.8005 11.0143C40.3961 10.5857 39.8327 10.3714 39.1105 10.3714C38.3883 10.3714 37.8177 10.5857 37.3988 11.0143C36.9944 11.4286 36.7922 12.0214 36.7922 12.7928V19.2857H33.0873V7.32855H36.7922V8.82855C37.1677 8.32855 37.6588 7.9357 38.2655 7.64998C38.8722 7.34998 39.5583 7.19998 40.3238 7.19998C41.2338 7.19998 42.0427 7.39284 42.7505 7.77855C43.4727 8.16427 44.0361 8.71427 44.4405 9.42855C44.8594 8.77141 45.4299 8.2357 46.1522 7.82141C46.8744 7.40713 47.6616 7.19998 48.5138 7.19998ZM59.7285 9.02141C60.0896 8.46427 60.588 8.01427 61.2235 7.67141C61.8591 7.32855 62.6029 7.15713 63.4552 7.15713C64.4518 7.15713 65.3546 7.40713 66.1635 7.90713C66.9724 8.40713 67.6079 9.12141 68.0702 10.05C68.5468 10.9786 68.7852 12.0571 68.7852 13.2857C68.7852 14.5143 68.5468 15.6 68.0702 16.5428C67.6079 17.4714 66.9724 18.1928 66.1635 18.7071C65.3546 19.2071 64.4518 19.4571 63.4552 19.4571C62.6174 19.4571 61.8735 19.2857 61.2235 18.9428C60.588 18.6 60.0896 18.1571 59.7285 17.6143V24.9857H56.0235V7.32855H59.7285V9.02141ZM65.0152 13.2857C65.0152 12.3714 64.7552 11.6571 64.2352 11.1428C63.7296 10.6143 63.1013 10.35 62.3502 10.35C61.6135 10.35 60.9852 10.6143 60.4652 11.1428C59.9596 11.6714 59.7068 12.3928 59.7068 13.3071C59.7068 14.2214 59.9596 14.9428 60.4652 15.4714C60.9852 16 61.6135 16.2643 62.3502 16.2643C63.0868 16.2643 63.7152 16 64.2352 15.4714C64.7552 14.9286 65.0152 14.2 65.0152 13.2857ZM82.6674 7.32855V19.2857H78.9624V17.6571C78.5868 18.1857 78.074 18.6143 77.424 18.9428C76.7885 19.2571 76.0807 19.4143 75.3007 19.4143C74.3763 19.4143 73.5601 19.2143 72.8524 18.8143C72.1446 18.4 71.5957 17.8071 71.2057 17.0357C70.8157 16.2643 70.6207 15.3571 70.6207 14.3143V7.32855H74.304V13.8214C74.304 14.6214 74.5135 15.2428 74.9324 15.6857C75.3513 16.1286 75.9146 16.35 76.6224 16.35C77.3446 16.35 77.9151 16.1286 78.334 15.6857C78.7529 15.2428 78.9624 14.6214 78.9624 13.8214V7.32855H82.6674ZM92.0667 16.1786V19.2857H90.1817C88.8384 19.2857 87.7912 18.9643 87.0401 18.3214C86.2889 17.6643 85.9134 16.6 85.9134 15.1286V10.3714H84.4401V7.32855H85.9134V4.41427H89.6184V7.32855H92.0451V10.3714H89.6184V15.1714C89.6184 15.5286 89.7051 15.7857 89.8784 15.9428C90.0517 16.1 90.3406 16.1786 90.7451 16.1786H92.0667ZM105.527 13.1143C105.527 13.4571 105.505 13.8143 105.462 14.1857H97.0771C97.1349 14.9286 97.3732 15.5 97.7921 15.9C98.2255 16.2857 98.7527 16.4786 99.3738 16.4786C100.298 16.4786 100.941 16.0928 101.302 15.3214H105.245C105.043 16.1071 104.675 16.8143 104.14 17.4428C103.62 18.0714 102.963 18.5643 102.169 18.9214C101.374 19.2786 100.486 19.4571 99.5038 19.4571C98.3194 19.4571 97.2649 19.2071 96.3405 18.7071C95.416 18.2071 94.6938 17.4928 94.1738 16.5643C93.6538 15.6357 93.3938 14.55 93.3938 13.3071C93.3938 12.0643 93.6466 10.9786 94.1521 10.05C94.6721 9.12141 95.3944 8.40713 96.3188 7.90713C97.2432 7.40713 98.3049 7.15713 99.5038 7.15713C100.674 7.15713 101.714 7.39998 102.624 7.8857C103.534 8.37141 104.242 9.06427 104.747 9.96427C105.267 10.8643 105.527 11.9143 105.527 13.1143ZM101.735 12.15C101.735 11.5214 101.519 11.0214 101.085 10.65C100.652 10.2786 100.11 10.0928 99.4605 10.0928C98.8394 10.0928 98.3121 10.2714 97.8788 10.6286C97.4599 10.9857 97.1999 11.4928 97.0988 12.15H101.735ZM111.187 9.32141C111.62 8.66427 112.162 8.14998 112.812 7.77855C113.462 7.39284 114.184 7.19998 114.978 7.19998V11.0786H113.96C113.036 11.0786 112.342 11.2786 111.88 11.6786C111.418 12.0643 111.187 12.75 111.187 13.7357V19.2857H107.482V7.32855H111.187V9.32141ZM8.29112 42.65C7.1789 42.65 6.18223 42.4714 5.30112 42.1143C4.42001 41.7571 3.71223 41.2286 3.17779 40.5286C2.65779 39.8286 2.38334 38.9857 2.35445 38H6.29779C6.35557 38.5571 6.55056 38.9857 6.88279 39.2857C7.21501 39.5714 7.64834 39.7143 8.18279 39.7143C8.73168 39.7143 9.16501 39.5928 9.48279 39.35C9.80056 39.0928 9.95945 38.7428 9.95945 38.3C9.95945 37.9286 9.82945 37.6214 9.56945 37.3786C9.3239 37.1357 9.01334 36.9357 8.63779 36.7786C8.27668 36.6214 7.75668 36.4428 7.07779 36.2428C6.09557 35.9428 5.2939 35.6428 4.67279 35.3428C4.05168 35.0428 3.51723 34.6 3.06945 34.0143C2.62168 33.4286 2.39779 32.6643 2.39779 31.7214C2.39779 30.3214 2.91057 29.2286 3.93612 28.4428C4.96168 27.6428 6.29779 27.2428 7.94445 27.2428C9.62001 27.2428 10.9706 27.6428 11.9961 28.4428C13.0217 29.2286 13.5706 30.3286 13.6428 31.7428H9.63445C9.60556 31.2571 9.42501 30.8786 9.09279 30.6071C8.76057 30.3214 8.33445 30.1786 7.81445 30.1786C7.36668 30.1786 7.00556 30.3 6.73112 30.5428C6.45668 30.7714 6.31945 31.1071 6.31945 31.55C6.31945 32.0357 6.55057 32.4143 7.01279 32.6857C7.47501 32.9571 8.19723 33.25 9.17945 33.5643C10.1617 33.8928 10.9561 34.2071 11.5628 34.5071C12.1839 34.8071 12.7183 35.2428 13.1661 35.8143C13.6139 36.3857 13.8378 37.1214 13.8378 38.0214C13.8378 38.8786 13.6139 39.6571 13.1661 40.3571C12.7328 41.0571 12.0972 41.6143 11.2595 42.0286C10.4217 42.4428 9.43223 42.65 8.29112 42.65ZM22.8562 39.3928V42.5H20.9712C19.6279 42.5 18.5807 42.1786 17.8295 41.5357C17.0784 40.8786 16.7029 39.8143 16.7029 38.3428V33.5857H15.2295V30.5428H16.7029V27.6286H20.4079V30.5428H22.8345V33.5857H20.4079V38.3857C20.4079 38.7428 20.4945 39 20.6679 39.1571C20.8412 39.3143 21.1301 39.3928 21.5345 39.3928H22.8562ZM30.4233 42.6714C29.2388 42.6714 28.17 42.4214 27.2166 41.9214C26.2777 41.4214 25.5339 40.7071 24.985 39.7786C24.4505 38.85 24.1833 37.7643 24.1833 36.5214C24.1833 35.2928 24.4577 34.2143 25.0066 33.2857C25.5555 32.3428 26.3066 31.6214 27.26 31.1214C28.2133 30.6214 29.2822 30.3714 30.4666 30.3714C31.6511 30.3714 32.72 30.6214 33.6733 31.1214C34.6266 31.6214 35.3777 32.3428 35.9266 33.2857C36.4755 34.2143 36.7499 35.2928 36.7499 36.5214C36.7499 37.75 36.4683 38.8357 35.905 39.7786C35.3561 40.7071 34.5977 41.4214 33.63 41.9214C32.6766 42.4214 31.6077 42.6714 30.4233 42.6714ZM30.4233 39.5C31.1311 39.5 31.7305 39.2428 32.2216 38.7286C32.7272 38.2143 32.98 37.4786 32.98 36.5214C32.98 35.5643 32.7344 34.8286 32.2433 34.3143C31.7666 33.8 31.1744 33.5428 30.4666 33.5428C29.7444 33.5428 29.145 33.8 28.6683 34.3143C28.1916 34.8143 27.9533 35.55 27.9533 36.5214C27.9533 37.4786 28.1844 38.2143 28.6466 38.7286C29.1233 39.2428 29.7155 39.5 30.4233 39.5ZM42.4204 32.5357C42.8538 31.8786 43.3954 31.3643 44.0454 30.9928C44.6954 30.6071 45.4177 30.4143 46.2121 30.4143V34.2928H45.1938C44.2693 34.2928 43.576 34.4928 43.1138 34.8928C42.6516 35.2786 42.4204 35.9643 42.4204 36.95V42.5H38.7154V30.5428H42.4204V32.5357ZM59.3797 36.3286C59.3797 36.6714 59.358 37.0286 59.3147 37.4H50.9297C50.9874 38.1428 51.2258 38.7143 51.6447 39.1143C52.078 39.5 52.6052 39.6928 53.2263 39.6928C54.1508 39.6928 54.7936 39.3071 55.1547 38.5357H59.098C58.8958 39.3214 58.5274 40.0286 57.993 40.6571C57.473 41.2857 56.8158 41.7786 56.0213 42.1357C55.2269 42.4928 54.3386 42.6714 53.3563 42.6714C52.1719 42.6714 51.1175 42.4214 50.193 41.9214C49.2686 41.4214 48.5463 40.7071 48.0263 39.7786C47.5063 38.85 47.2463 37.7643 47.2463 36.5214C47.2463 35.2786 47.4991 34.1928 48.0047 33.2643C48.5247 32.3357 49.2469 31.6214 50.1713 31.1214C51.0958 30.6214 52.1574 30.3714 53.3563 30.3714C54.5263 30.3714 55.5663 30.6143 56.4763 31.1C57.3863 31.5857 58.0941 32.2786 58.5997 33.1786C59.1197 34.0786 59.3797 35.1286 59.3797 36.3286ZM55.588 35.3643C55.588 34.7357 55.3713 34.2357 54.938 33.8643C54.5047 33.4928 53.963 33.3071 53.313 33.3071C52.6919 33.3071 52.1647 33.4857 51.7313 33.8428C51.3124 34.2 51.0524 34.7071 50.9513 35.3643H55.588Z" fill="white"/>
<path d="M3.13445 7.77858L3.45012 7.95201L3.45103 7.9504L3.13445 7.77858ZM5.84278 5.05715L6.01984 5.36844L6.0211 5.36772L5.84278 5.05715ZM14.4445 5.48572L14.6596 5.19887L14.4445 5.48572ZM17.0228 9.34287V9.70001H17.4912L17.372 9.25197L17.0228 9.34287ZM12.9495 9.34287L12.6235 9.49669L12.7217 9.70001H12.9495V9.34287ZM11.6495 7.90715L11.4625 8.21272L11.466 8.21479L11.6495 7.90715ZM6.99112 8.59287L7.26076 8.83044L6.99112 8.59287ZM11.6495 15.5786L11.466 15.2709L11.4625 15.273L11.6495 15.5786ZM12.9495 14.1429V13.7857H12.7217L12.6235 13.989L12.9495 14.1429ZM17.0228 14.1429L17.372 14.2338L17.4912 13.7857H17.0228V14.1429ZM14.4445 18L14.6574 18.2884L14.6596 18.2869L14.4445 18ZM5.84278 18.4286L5.66277 18.7382L5.66508 18.7395L5.66743 18.7408L5.84278 18.4286ZM3.13445 15.7072L3.45012 15.5337L3.13445 15.7072ZM2.52056 11.7429C2.52056 10.3103 2.83343 9.04987 3.45012 7.95201L2.81878 7.60515C2.13548 8.82158 1.79834 10.204 1.79834 11.7429H2.52056ZM3.45103 7.9504C4.06922 6.83626 4.92419 5.97794 6.01984 5.36844L5.66573 4.74587C4.45027 5.42208 3.49966 6.37804 2.81788 7.60676L3.45103 7.9504ZM6.0211 5.36772C7.13166 4.74394 8.39086 4.42858 9.80778 4.42858V3.71429C8.27805 3.71429 6.89391 4.05608 5.66447 4.74658L6.0211 5.36772ZM9.80778 4.42858C11.5462 4.42858 13.0139 4.88112 14.2293 5.77258L14.6596 5.19887C13.3039 4.20458 11.6804 3.71429 9.80778 3.71429V4.42858ZM14.2293 5.77258C15.4446 6.66387 16.2597 7.87829 16.6736 9.43376L17.372 9.25197C16.9192 7.55029 16.0154 6.19329 14.6596 5.19887L14.2293 5.77258ZM17.0228 8.98572H12.9495V9.70001H17.0228V8.98572ZM13.2754 9.18904C12.9436 8.50147 12.4629 7.96701 11.8329 7.59951L11.466 8.21479C11.9626 8.50444 12.3487 8.92712 12.6235 9.49669L13.2754 9.18904ZM11.8364 7.60162C11.2254 7.23587 10.5311 7.05715 9.76445 7.05715V7.77144C10.4133 7.77144 10.9757 7.92129 11.4625 8.21269L11.8364 7.60162ZM9.76445 7.05715C8.52877 7.05715 7.50321 7.48751 6.72148 8.35529L7.26076 8.83044C7.89458 8.12679 8.71792 7.77144 9.76445 7.77144V7.05715ZM6.72148 8.35529C5.94115 9.22154 5.56834 10.3636 5.56834 11.7429H6.29056C6.29056 10.4935 6.62553 9.53562 7.26076 8.83044L6.72148 8.35529ZM5.56834 11.7429C5.56834 13.1221 5.94115 14.2642 6.72148 15.1304L7.26076 14.6553C6.62553 13.9501 6.29056 12.9922 6.29056 11.7429H5.56834ZM6.72148 15.1304C7.50321 15.9982 8.52877 16.4286 9.76445 16.4286V15.7143C8.71792 15.7143 7.89458 15.3589 7.26076 14.6553L6.72148 15.1304ZM9.76445 16.4286C10.5311 16.4286 11.2254 16.2499 11.8364 15.8841L11.4625 15.273C10.9757 15.5644 10.4133 15.7143 9.76445 15.7143V16.4286ZM11.8329 15.8862C12.4629 15.5187 12.9436 14.9843 13.2754 14.2967L12.6235 13.989C12.3487 14.5586 11.9626 14.9813 11.466 15.2709L11.8329 15.8862ZM12.9495 14.5H17.0228V13.7857H12.9495V14.5ZM16.6736 14.052C16.2597 15.6074 15.4446 16.8219 14.2293 17.7132L14.6596 18.2869C16.0154 17.2924 16.9192 15.9354 17.372 14.2338L16.6736 14.052ZM14.2315 17.7116C13.0159 18.5897 11.5475 19.0357 9.80778 19.0357V19.75C11.6792 19.75 13.3019 19.2675 14.6574 18.2884L14.2315 17.7116ZM9.80778 19.0357C8.38948 19.0357 7.12924 18.7269 6.01814 18.1164L5.66743 18.7408C6.89633 19.416 8.27942 19.75 9.80778 19.75V19.0357ZM6.0228 18.119C4.92437 17.4943 4.06839 16.6344 3.45012 15.5337L2.81878 15.8806C3.50052 17.0942 4.45009 18.0485 5.66277 18.7382L6.0228 18.119ZM3.45012 15.5337C2.83343 14.4359 2.52056 13.1754 2.52056 11.7429H1.79834C1.79834 13.2817 2.13548 14.6642 2.81878 15.8806L3.45012 15.5337ZM21.5883 18.7072L21.4171 19.0216L21.4192 19.0227L21.5883 18.7072ZM19.3567 16.5643L19.0428 16.741L19.0449 16.7445L19.3567 16.5643ZM19.3783 10.0714L19.6901 10.2517L19.6913 10.2497L19.3783 10.0714ZM21.6317 7.90715L21.8009 8.22269L21.6317 7.90715ZM28.045 7.90715L27.8758 8.22269L28.045 7.90715ZM30.2983 10.0714L29.9854 10.2497L29.9866 10.2517L30.2983 10.0714ZM30.2767 16.5643L29.9658 16.3826L29.9649 16.384L30.2767 16.5643ZM28.0017 18.7072L27.8345 18.3906L27.8325 18.3916L28.0017 18.7072ZM26.5933 15.5143L26.3344 15.2653L26.3326 15.2672L26.3308 15.2691L26.5933 15.5143ZM26.615 11.1L26.3488 11.3413L26.3506 11.3433L26.3525 11.3452L26.615 11.1ZM23.04 11.1L23.3028 11.345L23.3062 11.3413L23.04 11.1ZM23.0183 15.5143L22.7485 15.7516L22.7503 15.7536L22.7522 15.7556L23.0183 15.5143ZM24.795 19.1C23.6637 19.1 22.6538 18.8617 21.7575 18.3916L21.4192 19.0227C22.4296 19.5526 23.5575 19.8143 24.795 19.8143V19.1ZM21.7596 18.3927C20.8803 17.9245 20.1845 17.2572 19.6684 16.384L19.0449 16.7445C19.6266 17.7286 20.4186 18.4898 21.4171 19.0216L21.7596 18.3927ZM19.6705 16.3876C19.1718 15.5211 18.9161 14.4983 18.9161 13.3072H18.1939C18.1939 14.6018 18.4727 15.7503 19.0429 16.741L19.6705 16.3876ZM18.9161 13.3072C18.9161 12.1328 19.1779 11.1182 19.6901 10.2517L19.0666 9.89119C18.481 10.8819 18.1939 12.0244 18.1939 13.3072H18.9161ZM19.6913 10.2497C20.207 9.36383 20.9088 8.69054 21.8009 8.22269L21.4625 7.59162C20.4479 8.12376 19.6475 8.89333 19.0654 9.89322L19.6913 10.2497ZM21.8009 8.22269C22.6971 7.75262 23.707 7.51429 24.8383 7.51429V6.80001C23.6008 6.80001 22.4729 7.06169 21.4625 7.59162L21.8009 8.22269ZM24.8383 7.51429C25.9697 7.51429 26.9796 7.75262 27.8758 8.22269L28.2142 7.59162C27.2038 7.06169 26.0759 6.80001 24.8383 6.80001V7.51429ZM27.8758 8.22269C28.7679 8.69054 29.4697 9.36383 29.9854 10.2497L30.6113 9.89322C30.0292 8.89333 29.2288 8.12376 28.2142 7.59162L27.8758 8.22269ZM29.9866 10.2517C30.4988 11.1182 30.7606 12.1328 30.7606 13.3072H31.4828C31.4828 12.0244 31.1957 10.8819 30.6101 9.89119L29.9866 10.2517ZM30.7606 13.3072C30.7606 14.4798 30.4924 15.5013 29.9658 16.3826L30.5876 16.746C31.1877 15.7416 31.4828 14.5917 31.4828 13.3072H30.7606ZM29.9649 16.384C29.4505 17.2544 28.7424 17.9215 27.8345 18.3906L28.1689 19.0237C29.1966 18.4928 30.0051 17.7313 30.5884 16.7445L29.9649 16.384ZM27.8325 18.3916C26.9363 18.8617 25.9264 19.1 24.795 19.1V19.8143C26.0326 19.8143 27.1605 19.5526 28.1709 19.0227L27.8325 18.3916ZM24.795 16.6429C25.6033 16.6429 26.2974 16.3444 26.8559 15.7595L26.3308 15.2691C25.9071 15.7128 25.4023 15.9286 24.795 15.9286V16.6429ZM26.8523 15.7633C27.4429 15.1624 27.7128 14.3253 27.7128 13.3072H26.9906C26.9906 14.2033 26.7549 14.8376 26.3344 15.2653L26.8523 15.7633ZM27.7128 13.3072C27.7128 12.2916 27.4516 11.4559 26.8775 10.8548L26.3525 11.3452C26.7607 11.7727 26.9906 12.4084 26.9906 13.3072H27.7128ZM26.8812 10.8587C26.3359 10.2703 25.647 9.97144 24.8383 9.97144V10.6857C25.4453 10.6857 25.9408 10.9011 26.3488 11.3413L26.8812 10.8587ZM24.8383 9.97144C24.0177 9.97144 23.3207 10.2686 22.7738 10.8587L23.3062 11.3413C23.7127 10.9028 24.2146 10.6857 24.8383 10.6857V9.97144ZM22.7773 10.855C22.2154 11.4444 21.9639 12.2824 21.9639 13.3072H22.6861C22.6861 12.389 22.9114 11.7556 23.3028 11.345L22.7773 10.855ZM21.9639 13.3072C21.9639 14.3176 22.208 15.1502 22.7485 15.7516L23.2882 15.277C22.9043 14.8498 22.6861 14.211 22.6861 13.3072H21.9639ZM22.7522 15.7556C23.2975 16.344 23.9864 16.6429 24.795 16.6429V15.9286C24.1881 15.9286 23.6925 15.7132 23.2846 15.273L22.7522 15.7556ZM52.0888 8.55001L51.8296 8.79844L51.8317 8.80051L52.0888 8.55001ZM53.4322 19.2857V19.6429H53.7933V19.2857H53.4322ZM49.7488 19.2857H49.3877V19.6429H49.7488V19.2857ZM49.1205 11.0143L48.8565 11.258L48.8609 11.2625L48.8652 11.2668L49.1205 11.0143ZM45.7188 11.0143L45.4592 10.7661V10.7662L45.7188 11.0143ZM45.1122 19.2857V19.6429H45.4733V19.2857H45.1122ZM41.4288 19.2857H41.0677V19.6429H41.4288V19.2857ZM40.8005 11.0143L40.5365 11.258L40.5409 11.2625L40.5452 11.2668L40.8005 11.0143ZM37.3988 11.0143L37.1392 10.7661V10.7662L37.3988 11.0143ZM36.7922 19.2857V19.6429H37.1533V19.2857H36.7922ZM33.0873 19.2857H32.7262V19.6429H33.0873V19.2857ZM33.0873 7.32858V6.97144H32.7262V7.32858H33.0873ZM36.7922 7.32858H37.1533V6.97144H36.7922V7.32858ZM36.7922 8.82858H36.4311V9.90826L37.0821 9.04154L36.7922 8.82858ZM38.2655 7.65001L38.4208 7.97247L38.424 7.97097L38.4269 7.96944L38.2655 7.65001ZM42.7505 7.77858L42.5765 8.0914L42.579 8.09283L42.7505 7.77858ZM44.4405 9.42858L44.1256 9.60308L44.4221 10.1271L44.746 9.61904L44.4405 9.42858ZM46.1522 7.82144L45.9713 7.51251L46.1522 7.82144ZM48.5138 7.55715C49.9381 7.55715 51.029 7.98072 51.8296 8.79844L52.3485 8.30158C51.3868 7.31929 50.0944 6.84287 48.5138 6.84287V7.55715ZM51.8317 8.80051C52.6442 9.61708 53.0711 10.7675 53.0711 12.3H53.7933C53.7933 10.6325 53.3249 9.28294 52.3463 8.29951L51.8317 8.80051ZM53.0711 12.3V19.2857H53.7933V12.3H53.0711ZM53.4322 18.9286H49.7488V19.6429H53.4322V18.9286ZM50.11 19.2857V12.7929H49.3877V19.2857H50.11ZM50.11 12.7929C50.11 11.9578 49.8821 11.2622 49.3758 10.7618L48.8652 11.2668C49.1971 11.5949 49.3877 12.085 49.3877 12.7929H50.11ZM49.3845 10.7706C48.8973 10.2543 48.2293 10.0143 47.4305 10.0143V10.7286C48.0762 10.7286 48.5351 10.9172 48.8565 11.258L49.3845 10.7706ZM47.4305 10.0143C46.6314 10.0143 45.9593 10.2543 45.4592 10.7661L45.9785 11.2625C46.3161 10.9172 46.7852 10.7286 47.4305 10.7286V10.0143ZM45.4592 10.7662C44.9703 11.2672 44.7511 11.9611 44.7511 12.7929H45.4733C45.4733 12.0818 45.6589 11.59 45.9788 11.2624L45.4592 10.7662ZM44.7511 12.7929V19.2857H45.4733V12.7929H44.7511ZM45.1122 18.9286H41.4288V19.6429H45.1122V18.9286ZM41.79 19.2857V12.7929H41.0677V19.2857H41.79ZM41.79 12.7929C41.79 11.9578 41.5621 11.2622 41.0558 10.7618L40.5452 11.2668C40.8771 11.5949 41.0677 12.085 41.0677 12.7929H41.79ZM41.0645 10.7706C40.5773 10.2543 39.9093 10.0143 39.1105 10.0143V10.7286C39.7562 10.7286 40.2151 10.9172 40.5365 11.258L41.0645 10.7706ZM39.1105 10.0143C38.3114 10.0143 37.6393 10.2543 37.1392 10.7661L37.6585 11.2625C37.9961 10.9172 38.4652 10.7286 39.1105 10.7286V10.0143ZM37.1392 10.7662C36.6503 11.2672 36.4311 11.9611 36.4311 12.7929H37.1533C37.1533 12.0818 37.3389 11.59 37.6588 11.2624L37.1392 10.7662ZM36.4311 12.7929V19.2857H37.1533V12.7929H36.4311ZM36.7922 18.9286H33.0873V19.6429H36.7922V18.9286ZM33.4484 19.2857V7.32858H32.7262V19.2857H33.4484ZM33.0873 7.68572H36.7922V6.97144H33.0873V7.68572ZM36.4311 7.32858V8.82858H37.1533V7.32858H36.4311ZM37.0821 9.04154C37.4201 8.59147 37.8636 8.23483 38.4208 7.97247L38.1102 7.32754C37.4541 7.63662 36.9153 8.06569 36.5026 8.61562L37.0821 9.04154ZM38.4269 7.96944C38.9776 7.69726 39.607 7.55715 40.3238 7.55715V6.84287C39.5095 6.84287 38.7671 7.00276 38.1041 7.33058L38.4269 7.96944ZM40.3238 7.55715C41.1808 7.55715 41.9283 7.73826 42.5765 8.09137L42.9249 7.46579C42.1572 7.04747 41.2869 6.84287 40.3238 6.84287V7.55715ZM42.579 8.09283C43.2405 8.44608 43.7544 8.94737 44.1256 9.60308L44.7558 9.25408C44.3181 8.48122 43.7053 7.88251 42.922 7.46433L42.579 8.09283ZM44.746 9.61904C45.132 9.01383 45.6585 8.51758 46.3335 8.13037L45.9713 7.51251C45.2017 7.95387 44.5871 8.52904 44.135 9.23812L44.746 9.61904ZM46.3335 8.13037C46.9993 7.74833 47.7241 7.55715 48.5138 7.55715V6.84287C47.5995 6.84287 46.7495 7.06597 45.9713 7.51251L46.3335 8.13037ZM59.7285 9.02144H59.3674V10.2404L60.0326 9.21419L59.7285 9.02144ZM61.2235 7.67144L61.0505 7.3579L61.2235 7.67144ZM66.1635 7.90715L65.9721 8.21001L66.1635 7.90715ZM68.0702 10.05L67.7463 10.2078L67.7481 10.2117L68.0702 10.05ZM68.0702 16.5429L67.747 16.3832L67.7463 16.3851L68.0702 16.5429ZM66.1635 18.7072L66.3549 19.01L66.3589 19.0076L66.1635 18.7072ZM61.2235 18.9429L61.0505 19.2564L61.0534 19.258L61.2235 18.9429ZM59.7285 17.6143L60.03 17.418L59.3674 16.4216V17.6143H59.7285ZM59.7285 24.9857V25.3429H60.0896V24.9857H59.7285ZM56.0235 24.9857H55.6624V25.3429H56.0235V24.9857ZM56.0235 7.32858V6.97144H55.6624V7.32858H56.0235ZM59.7285 7.32858H60.0896V6.97144H59.7285V7.32858ZM64.2352 11.1429L63.9727 11.3883L63.9763 11.3919L63.9799 11.3954L64.2352 11.1429ZM60.4652 11.1429L60.2063 10.8938L60.2026 10.8974L60.4652 11.1429ZM60.4652 15.4714L60.2026 15.7169L60.2063 15.7205L60.4652 15.4714ZM64.2352 15.4714L64.4941 15.7205L64.4973 15.717L64.2352 15.4714ZM60.0326 9.21419C60.3583 8.71165 60.8097 8.30151 61.3965 7.98497L61.0505 7.3579C60.3662 7.72708 59.821 8.21694 59.4245 8.82869L60.0326 9.21419ZM61.3965 7.98497C61.9703 7.6754 62.6524 7.51429 63.4552 7.51429V6.80001C62.5531 6.80001 61.7478 6.98176 61.0505 7.3579L61.3965 7.98497ZM63.4552 7.51429C64.3872 7.51429 65.2232 7.74712 65.9721 8.21001L66.3549 7.60429C65.4861 7.06719 64.5161 6.80001 63.4552 6.80001V7.51429ZM65.9721 8.21001C66.7185 8.6714 67.3108 9.33283 67.7463 10.2078L68.3941 9.89226C67.9052 8.91004 67.2263 8.1429 66.3549 7.60429L65.9721 8.21001ZM67.7481 10.2117C68.1948 11.0819 68.4241 12.1033 68.4241 13.2857H69.1463C69.1463 12.011 68.8989 10.8753 68.3923 9.88833L67.7481 10.2117ZM68.4241 13.2857C68.4241 14.468 68.1948 15.4975 67.747 16.3832L68.393 16.7026C68.8986 15.7025 69.1463 14.5606 69.1463 13.2857H68.4241ZM67.7463 16.3851C67.3104 17.2608 66.7171 17.9306 65.9682 18.4067L66.3589 19.0076C67.2277 18.4551 67.9055 17.6821 68.3941 16.7006L67.7463 16.3851ZM65.9721 18.4043C65.2232 18.8672 64.3872 19.1 63.4552 19.1V19.8143C64.5161 19.8143 65.4861 19.5471 66.3549 19.01L65.9721 18.4043ZM63.4552 19.1C62.6683 19.1 61.9844 18.9394 61.3932 18.6277L61.0534 19.258C61.7627 19.632 62.5665 19.8143 63.4552 19.8143V19.1ZM61.3965 18.6293C60.8075 18.3116 60.3554 17.9071 60.03 17.418L59.4266 17.8106C59.8238 18.4072 60.3684 18.8884 61.0505 19.2564L61.3965 18.6293ZM59.3674 17.6143V24.9857H60.0896V17.6143H59.3674ZM59.7285 24.6286H56.0235V25.3429H59.7285V24.6286ZM56.3846 24.9857V7.32858H55.6624V24.9857H56.3846ZM56.0235 7.68572H59.7285V6.97144H56.0235V7.68572ZM59.3674 7.32858V9.02144H60.0896V7.32858H59.3674ZM65.3763 13.2857C65.3763 12.3024 65.0946 11.4878 64.4905 10.8903L63.9799 11.3954C64.4157 11.8265 64.6541 12.4405 64.6541 13.2857H65.3763ZM64.4973 10.8974C63.9221 10.2959 63.1981 9.99287 62.3502 9.99287V10.7072C63.0045 10.7072 63.5372 10.9327 63.9727 11.3883L64.4973 10.8974ZM62.3502 9.99287C61.5146 9.99287 60.7934 10.2971 60.2063 10.8938L60.7241 11.3919C61.1769 10.9315 61.7125 10.7072 62.3502 10.7072V9.99287ZM60.2026 10.8974C59.6187 11.5082 59.3457 12.3261 59.3457 13.3072H60.068C60.068 12.4597 60.3005 11.8347 60.7273 11.3883L60.2026 10.8974ZM59.3457 13.3072C59.3457 14.2882 59.6187 15.1061 60.2026 15.7169L60.7273 15.226C60.3005 14.7796 60.068 14.1547 60.068 13.3072H59.3457ZM60.2063 15.7205C60.7934 16.3172 61.5146 16.6214 62.3502 16.6214V15.9072C61.7125 15.9072 61.1769 15.6828 60.7241 15.2224L60.2063 15.7205ZM62.3502 16.6214C63.1858 16.6214 63.9069 16.3172 64.4941 15.7205L63.9763 15.2224C63.5234 15.6828 62.9879 15.9072 62.3502 15.9072V16.6214ZM64.4973 15.717C65.0943 15.0938 65.3763 14.2699 65.3763 13.2857H64.6541C64.6541 14.1301 64.4161 14.7634 63.973 15.2258L64.4973 15.717ZM82.6674 7.32858H83.0285V6.97144H82.6674V7.32858ZM82.6674 19.2857V19.6429H83.0285V19.2857H82.6674ZM78.9624 19.2857H78.6013V19.6429H78.9624V19.2857ZM78.9624 17.6572H79.3235V16.5277L78.6666 17.4518L78.9624 17.6572ZM77.424 18.9429L77.5855 19.2623L77.5883 19.2609L77.424 18.9429ZM72.8524 18.8143L72.6682 19.1217L72.6707 19.123L72.6729 19.1244L72.8524 18.8143ZM71.2057 17.0357L70.8825 17.1954L71.2057 17.0357ZM70.6207 7.32858V6.97144H70.2596V7.32858H70.6207ZM74.304 7.32858H74.6652V6.97144H74.304V7.32858ZM74.9324 15.6857L74.6684 15.9297L74.9324 15.6857ZM78.9624 7.32858V6.97144H78.6013V7.32858H78.9624ZM82.3063 7.32858V19.2857H83.0285V7.32858H82.3063ZM82.6674 18.9286H78.9624V19.6429H82.6674V18.9286ZM79.3235 19.2857V17.6572H78.6013V19.2857H79.3235ZM78.6666 17.4518C78.3286 17.9275 77.8635 18.3196 77.2594 18.6249L77.5883 19.2609C78.2842 18.909 78.8447 18.444 79.2578 17.8625L78.6666 17.4518ZM77.2623 18.6234C76.6816 18.9106 76.0301 19.0572 75.3007 19.0572V19.7714C76.1309 19.7714 76.895 19.6037 77.5855 19.2623L77.2623 18.6234ZM75.3007 19.0572C74.4304 19.0572 73.6775 18.8694 73.0315 18.5042L72.6729 19.1244C73.4424 19.5592 74.3217 19.7714 75.3007 19.7714V19.0572ZM73.0362 18.5069C72.3916 18.1298 71.8893 17.5899 71.5285 16.876L70.8825 17.1954C71.3018 18.0244 71.8972 18.6703 72.6682 19.1217L73.0362 18.5069ZM71.5285 16.876C71.1681 16.1635 70.9818 15.3132 70.9818 14.3143H70.2596C70.2596 15.4012 70.4629 16.3651 70.8825 17.1954L71.5285 16.876ZM70.9818 14.3143V7.32858H70.2596V14.3143H70.9818ZM70.6207 7.68572H74.304V6.97144H70.6207V7.68572ZM73.9429 7.32858V13.8214H74.6652V7.32858H73.9429ZM73.9429 13.8214C73.9429 14.6824 74.169 15.4018 74.6684 15.9297L75.196 15.4417C74.8576 15.0839 74.6652 14.5605 74.6652 13.8214H73.9429ZM74.6684 15.9297C75.1664 16.4561 75.8315 16.7071 76.6224 16.7071V15.9929C75.9977 15.9929 75.5358 15.801 75.196 15.4417L74.6684 15.9297ZM76.6224 16.7071C77.4251 16.7071 78.0982 16.4576 78.5977 15.9297L78.0701 15.4417C77.7317 15.7995 77.2637 15.9929 76.6224 15.9929V16.7071ZM78.5977 15.9297C79.0971 15.4018 79.3235 14.6824 79.3235 13.8214H78.6013C78.6013 14.5605 78.4084 15.0839 78.0701 15.4417L78.5977 15.9297ZM79.3235 13.8214V7.32858H78.6013V13.8214H79.3235ZM78.9624 7.68572H82.6674V6.97144H78.9624V7.68572ZM92.0667 16.1786H92.4278V15.8214H92.0667V16.1786ZM92.0667 19.2857V19.6429H92.4278V19.2857H92.0667ZM87.0401 18.3214L86.801 18.5889L86.8039 18.5915L87.0401 18.3214ZM85.9134 10.3714H86.2745V10.0143H85.9134V10.3714ZM84.4401 10.3714H84.079V10.7286H84.4401V10.3714ZM84.4401 7.32858V6.97144H84.079V7.32858H84.4401ZM85.9134 7.32858V7.68572H86.2745V7.32858H85.9134ZM85.9134 4.41429V4.05715H85.5523V4.41429H85.9134ZM89.6184 4.41429H89.9795V4.05715H89.6184V4.41429ZM89.6184 7.32858H89.2573V7.68572H89.6184V7.32858ZM92.0451 7.32858H92.4062V6.97144H92.0451V7.32858ZM92.0451 10.3714V10.7286H92.4062V10.3714H92.0451ZM89.6184 10.3714V10.0143H89.2573V10.3714H89.6184ZM89.8784 15.9429L89.6343 16.2062L89.8784 15.9429ZM91.7056 16.1786V19.2857H92.4278V16.1786H91.7056ZM92.0667 18.9286H90.1817V19.6429H92.0667V18.9286ZM90.1817 18.9286C88.8944 18.9286 87.9418 18.6209 87.2766 18.0514L86.8039 18.5915C87.6406 19.3076 88.7824 19.6429 90.1817 19.6429V18.9286ZM87.2795 18.0539C86.6371 17.4919 86.2745 16.5478 86.2745 15.1286H85.5523C85.5523 16.6523 85.9412 17.8367 86.801 18.5889L87.2795 18.0539ZM86.2745 15.1286V10.3714H85.5523V15.1286H86.2745ZM85.9134 10.0143H84.4401V10.7286H85.9134V10.0143ZM84.8012 10.3714V7.32858H84.079V10.3714H84.8012ZM84.4401 7.68572H85.9134V6.97144H84.4401V7.68572ZM86.2745 7.32858V4.41429H85.5523V7.32858H86.2745ZM85.9134 4.77144H89.6184V4.05715H85.9134V4.77144ZM89.2573 4.41429V7.32858H89.9795V4.41429H89.2573ZM89.6184 7.68572H92.0451V6.97144H89.6184V7.68572ZM91.684 7.32858V10.3714H92.4062V7.32858H91.684ZM92.0451 10.0143H89.6184V10.7286H92.0451V10.0143ZM89.2573 10.3714V15.1714H89.9795V10.3714H89.2573ZM89.2573 15.1714C89.2573 15.5755 89.3544 15.9523 89.6343 16.2062L90.1225 15.6796C90.0557 15.6192 89.9795 15.4817 89.9795 15.1714H89.2573ZM89.6343 16.2062C89.9084 16.4544 90.3103 16.5357 90.7451 16.5357V15.8214C90.3713 15.8214 90.1955 15.7457 90.1225 15.6796L89.6343 16.2062ZM90.7451 16.5357H92.0667V15.8214H90.7451V16.5357ZM105.462 14.1857V14.5429H105.784L105.821 14.2267L105.462 14.1857ZM97.0772 14.1857V13.8286H96.6871L96.7171 14.2131L97.0772 14.1857ZM97.7921 15.9L97.5415 16.1569L97.5459 16.1613L97.5506 16.1655L97.7921 15.9ZM101.302 15.3214V14.9643H101.071L100.975 15.1714L101.302 15.3214ZM105.245 15.3214L105.595 15.4095L105.71 14.9643H105.245V15.3214ZM104.14 17.4429L103.864 17.213L103.861 17.2167L104.14 17.4429ZM102.169 18.9214L102.318 19.2466L102.169 18.9214ZM96.3405 18.7072L96.1671 19.0205L96.3405 18.7072ZM94.1738 16.5643L94.4898 16.3913L94.1738 16.5643ZM94.1522 10.05L93.8362 9.87697L93.8344 9.88069L94.1522 10.05ZM96.3188 7.90715L96.4922 8.22051L96.3188 7.90715ZM102.624 7.88572L102.452 8.20001L102.624 7.88572ZM104.747 9.96429L104.432 10.1378L104.434 10.1415L104.747 9.96429ZM101.735 12.15V12.5072H102.097V12.15H101.735ZM101.085 10.65L101.322 10.3801L101.085 10.65ZM97.8788 10.6286L97.6477 10.3542L97.6455 10.3561L97.643 10.3581L97.8788 10.6286ZM97.0988 12.15L96.742 12.0963L96.6788 12.5072H97.0988V12.15ZM105.166 13.1143C105.166 13.4423 105.145 13.7858 105.104 14.1448L105.821 14.2267C105.866 13.8428 105.888 13.472 105.888 13.1143H105.166ZM105.462 13.8286H97.0772V14.5429H105.462V13.8286ZM96.7171 14.2131C96.7796 15.0169 97.0421 15.6801 97.5415 16.1569L98.0431 15.6431C97.7048 15.3199 97.4903 14.8403 97.4372 14.1583L96.7171 14.2131ZM97.5506 16.1655C98.055 16.6143 98.67 16.8357 99.3738 16.8357V16.1214C98.8358 16.1214 98.3963 15.9572 98.0337 15.6345L97.5506 16.1655ZM99.3738 16.8357C99.887 16.8357 100.347 16.7284 100.737 16.4946C101.128 16.2599 101.424 15.9121 101.63 15.4715L100.975 15.1714C100.82 15.5022 100.614 15.733 100.362 15.884C100.109 16.0359 99.7851 16.1214 99.3738 16.1214V16.8357ZM101.302 15.6786H105.245V14.9643H101.302V15.6786ZM104.896 15.2333C104.707 15.9662 104.364 16.625 103.864 17.213L104.417 17.6727C104.986 17.0035 105.38 16.2481 105.595 15.4095L104.896 15.2333ZM103.861 17.2167C103.379 17.8002 102.767 18.2604 102.019 18.5963L102.318 19.2466C103.16 18.8682 103.863 18.3427 104.42 17.669L103.861 17.2167ZM102.019 18.5963C101.278 18.9299 100.441 19.1 99.5038 19.1V19.8143C100.531 19.8143 101.472 19.6273 102.318 19.2466L102.019 18.5963ZM99.5038 19.1C98.3725 19.1 97.3787 18.8617 96.5138 18.3938L96.1671 19.0205C97.1512 19.5527 98.2667 19.8143 99.5038 19.8143V19.1ZM96.5138 18.3938C95.6504 17.9269 94.9773 17.2618 94.4898 16.3913L93.8578 16.7373C94.4103 17.7239 95.1817 18.4874 96.1671 19.0205L96.5138 18.3938ZM94.4898 16.3913C94.0041 15.524 93.7549 14.4999 93.7549 13.3072H93.0327C93.0327 14.6002 93.3035 15.7474 93.8578 16.7373L94.4898 16.3913ZM93.7549 13.3072C93.7549 12.1128 93.9976 11.0873 94.4703 10.2193L93.8344 9.88069C93.2956 10.8699 93.0327 12.0158 93.0327 13.3072H93.7549ZM94.4681 10.223C94.9556 9.35251 95.6287 8.6874 96.4922 8.22051L96.1455 7.59379C95.16 8.1269 94.3887 8.89037 93.8362 9.87697L94.4681 10.223ZM96.4922 8.22051C97.3567 7.75301 98.3573 7.51429 99.5038 7.51429V6.80001C98.2529 6.80001 97.1302 7.06129 96.1455 7.59379L96.4922 8.22051ZM99.5038 7.51429C100.622 7.51429 101.602 7.74594 102.452 8.20001L102.795 7.57144C101.826 7.05408 100.726 6.80001 99.5038 6.80001V7.51429ZM102.452 8.20001C103.301 8.65312 103.959 9.2969 104.432 10.1377L105.063 9.79087C104.524 8.83169 103.766 8.08976 102.795 7.57144L102.452 8.20001ZM104.434 10.1415C104.918 10.9795 105.166 11.9665 105.166 13.1143H105.888C105.888 11.862 105.617 10.749 105.061 9.78712L104.434 10.1415ZM102.097 12.15C102.097 11.4305 101.844 10.8272 101.322 10.3801L100.849 10.9199C101.194 11.2157 101.374 11.6124 101.374 12.15H102.097ZM101.322 10.3801C100.814 9.9449 100.185 9.73572 99.4605 9.73572V10.45C100.036 10.45 100.49 10.6123 100.849 10.9199L101.322 10.3801ZM99.4605 9.73572C98.7643 9.73572 98.1525 9.93808 97.6477 10.3542L98.1099 10.9029C98.4718 10.6048 98.9148 10.45 99.4605 10.45V9.73572ZM97.643 10.3581C97.1458 10.7822 96.8529 11.3738 96.742 12.0963L97.4559 12.2037C97.5469 11.6119 97.7745 11.1893 98.1146 10.8991L97.643 10.3581ZM97.0988 12.5072H101.735V11.7929H97.0988V12.5072ZM111.187 9.32144H110.826V10.5228L111.489 9.51654L111.187 9.32144ZM112.812 7.77858L112.992 8.08783L112.995 8.08633L112.997 8.08483L112.812 7.77858ZM114.979 7.20001H115.34V6.84287H114.979V7.20001ZM114.979 11.0786V11.4357H115.34V11.0786H114.979ZM111.88 11.6786L112.113 11.9515L112.116 11.9495L112.118 11.9474L111.88 11.6786ZM111.187 19.2857V19.6429H111.548V19.2857H111.187ZM107.482 19.2857H107.121V19.6429H107.482V19.2857ZM107.482 7.32858V6.97144H107.121V7.32858H107.482ZM111.187 7.32858H111.548V6.97144H111.187V7.32858ZM111.489 9.51654C111.894 8.90362 112.394 8.42958 112.992 8.08783L112.631 7.46933C111.929 7.87044 111.347 8.42497 110.884 9.12633L111.489 9.51654ZM112.997 8.08483C113.589 7.73404 114.246 7.55715 114.979 7.55715V6.84287C114.122 6.84287 113.335 7.05169 112.626 7.47233L112.997 8.08483ZM114.617 7.20001V11.0786H115.34V7.20001H114.617ZM114.979 10.7214H113.96V11.4357H114.979V10.7214ZM113.96 10.7214C112.991 10.7214 112.197 10.9301 111.642 11.4098L112.118 11.9474C112.488 11.6271 113.081 11.4357 113.96 11.4357V10.7214ZM111.647 11.4056C111.063 11.8928 110.826 12.7113 110.826 13.7357H111.548C111.548 12.7887 111.772 12.2358 112.113 11.9515L111.647 11.4056ZM110.826 13.7357V19.2857H111.548V13.7357H110.826ZM111.187 18.9286H107.482V19.6429H111.187V18.9286ZM107.843 19.2857V7.32858H107.121V19.2857H107.843ZM107.482 7.68572H111.187V6.97144H107.482V7.68572ZM110.826 7.32858V9.32144H111.548V7.32858H110.826ZM5.30112 42.1143L5.16418 42.4446L5.30112 42.1143ZM3.17778 40.5286L2.88675 40.74L2.8896 40.7439L3.17778 40.5286ZM2.35445 38V37.6429H1.98272L1.99349 38.0104L2.35445 38ZM6.29778 38L6.65702 37.9636L6.62376 37.6429H6.29778V38ZM6.88278 39.2857L6.63929 39.5493L6.64254 39.5525L6.64582 39.5554L6.88278 39.2857ZM9.48279 39.35L9.70357 39.6325L9.70758 39.6296L9.71144 39.6264L9.48279 39.35ZM9.56945 37.3786L9.31411 37.6311L9.31776 37.6346L9.32151 37.6382L9.56945 37.3786ZM8.63778 36.7786L8.49237 37.1054L8.49471 37.1064L8.4971 37.1075L8.63778 36.7786ZM7.07778 36.2429L6.97122 36.5843L6.97469 36.585L7.07778 36.2429ZM3.06945 34.0143L3.35749 33.7989L3.06945 34.0143ZM3.93612 28.4429L4.15726 28.7252L4.15975 28.7233L3.93612 28.4429ZM11.9961 28.4429L11.7725 28.7233L11.775 28.7252L11.9961 28.4429ZM13.6428 31.7429V32.1H14.0226L14.0034 31.7249L13.6428 31.7429ZM9.63445 31.7429L9.27395 31.7638L9.29396 32.1H9.63445V31.7429ZM9.09279 30.6071L8.85582 30.8766L8.85929 30.8796L8.86279 30.8825L9.09279 30.6071ZM6.73112 30.5429L6.96371 30.816L6.96786 30.8126L6.97191 30.809L6.73112 30.5429ZM7.01278 32.6857L7.19713 32.3786L7.01278 32.6857ZM9.17945 33.5643L9.29515 33.2259L9.2906 33.2245L9.17945 33.5643ZM11.5628 34.5072L11.4013 34.8266L11.4043 34.8281L11.5628 34.5072ZM13.1661 35.8143L12.8807 36.0332L13.1661 35.8143ZM13.1661 40.3571L12.8609 40.1661L12.8595 40.1686L12.8581 40.1707L13.1661 40.3571ZM11.2595 42.0286L11.098 41.7093L11.2595 42.0286ZM8.29112 42.2929C7.21808 42.2929 6.26904 42.1207 5.43805 41.7839L5.16418 42.4446C6.09542 42.8221 7.13972 43.0071 8.29112 43.0071V42.2929ZM5.43805 41.7839C4.61233 41.4493 3.95847 40.9586 3.46597 40.3132L2.8896 40.7439C3.46597 41.4986 4.22768 42.065 5.16418 42.4446L5.43805 41.7839ZM3.4688 40.3171C2.99793 39.6832 2.74247 38.9129 2.71541 37.9896L1.99349 38.0104C2.02421 39.0586 2.31764 39.9739 2.88677 40.74L3.4688 40.3171ZM2.35445 38.3571H6.29778V37.6429H2.35445V38.3571ZM5.93855 38.0364C6.00297 38.6575 6.22592 39.1761 6.63929 39.5493L7.12628 39.0221C6.8752 38.7954 6.70815 38.4568 6.65702 37.9636L5.93855 38.0364ZM6.64582 39.5554C7.05709 39.9089 7.5807 40.0714 8.18278 40.0714V39.3571C7.71598 39.3571 7.37292 39.2339 7.11975 39.0161L6.64582 39.5554ZM8.18278 40.0714C8.78263 40.0714 9.30295 39.9389 9.70357 39.6325L9.262 39.0675C9.02706 39.2468 8.68072 39.3571 8.18278 39.3571V40.0714ZM9.71144 39.6264C10.1213 39.2946 10.3206 38.8389 10.3206 38.3H9.59834C9.59834 38.6468 9.47979 38.8911 9.25413 39.0736L9.71144 39.6264ZM10.3206 38.3C10.3206 37.8357 10.1536 37.4329 9.81739 37.1189L9.32151 37.6382C9.50532 37.81 9.59834 38.0214 9.59834 38.3H10.3206ZM9.82479 37.1261C9.54114 36.8454 9.18953 36.6218 8.77847 36.4496L8.4971 37.1075C8.83715 37.2496 9.10665 37.4261 9.31411 37.6311L9.82479 37.1261ZM8.7832 36.4518C8.40158 36.2857 7.86479 36.1022 7.18088 35.9007L6.97469 36.585C7.64856 36.7836 8.15177 36.9571 8.49237 37.1054L8.7832 36.4518ZM7.18435 35.9018C6.21224 35.6047 5.42967 35.311 4.83124 35.0219L4.51433 35.6638C5.15812 35.9746 5.97889 36.2811 6.97122 36.5839L7.18435 35.9018ZM4.83124 35.0219C4.26484 34.7484 3.77365 34.3433 3.35749 33.7989L2.78141 34.2297C3.2608 34.8568 3.83851 35.3374 4.51433 35.6638L4.83124 35.0219ZM3.35749 33.7989C2.96911 33.2909 2.7589 32.6088 2.7589 31.7214H2.03667C2.03667 32.7198 2.27424 33.5663 2.78141 34.2297L3.35749 33.7989ZM2.7589 31.7214C2.7589 30.4203 3.22886 29.4365 4.15726 28.7252L3.71497 28.1605C2.59226 29.0207 2.03667 30.2226 2.03667 31.7214H2.7589ZM4.15975 28.7233C5.10652 27.9847 6.35737 27.6 7.94445 27.6V26.8857C6.2382 26.8857 4.81683 27.301 3.71248 28.1624L4.15975 28.7233ZM7.94445 27.6C9.56208 27.6 10.8268 27.9855 11.7725 28.7233L12.2198 28.1624C11.1144 27.3002 9.67793 26.8857 7.94445 26.8857V27.6ZM11.775 28.7252C12.708 29.44 13.2146 30.4385 13.2821 31.7609L14.0034 31.7249C13.9265 30.2187 13.3353 29.0171 12.2173 28.1605L11.775 28.7252ZM13.6428 31.3857H9.63445V32.1H13.6428V31.3857ZM9.99495 31.7219C9.96108 31.1526 9.74362 30.6756 9.32278 30.3318L8.86279 30.8825C9.1064 31.0815 9.25005 31.3617 9.27395 31.7638L9.99495 31.7219ZM9.32975 30.3376C8.92025 29.9855 8.4049 29.8214 7.81445 29.8214V30.5357C8.264 30.5357 8.60088 30.6574 8.85582 30.8766L9.32975 30.3376ZM7.81445 29.8214C7.29795 29.8214 6.84458 29.9632 6.49033 30.2767L6.97191 30.809C7.16655 30.6368 7.43543 30.5357 7.81445 30.5357V29.8214ZM6.49853 30.2697C6.12293 30.5825 5.95834 31.0302 5.95834 31.55H6.68056C6.68056 31.1841 6.79041 30.9604 6.96371 30.816L6.49853 30.2697ZM5.95834 31.55C5.95834 32.1755 6.26915 32.6644 6.82844 32.9928L7.19713 32.3786C6.83198 32.1642 6.68056 31.8959 6.68056 31.55H5.95834ZM6.82844 32.9928C7.32612 33.2851 8.07933 33.5876 9.0683 33.9041L9.2906 33.2245C8.31513 32.9124 7.62389 32.6292 7.19713 32.3786L6.82844 32.9928ZM9.06375 33.9026C10.0376 34.2284 10.815 34.5366 11.4013 34.8266L11.7243 34.1877C11.0972 33.8776 10.2858 33.5574 9.29515 33.226L9.06375 33.9026ZM11.4043 34.8281C11.9729 35.1027 12.4648 35.5023 12.8807 36.0332L13.4515 35.5955C12.9719 34.9834 12.3949 34.5116 11.7212 34.1862L11.4043 34.8281ZM12.8807 36.0332C13.2684 36.5279 13.4767 37.1807 13.4767 38.0214H14.1989C14.1989 37.0621 13.9594 36.2436 13.4515 35.5955L12.8807 36.0332ZM13.4767 38.0214C13.4767 38.8136 13.2709 39.5254 12.8609 40.1661L13.4713 40.5482C13.9569 39.7889 14.1989 38.9436 14.1989 38.0214H13.4767ZM12.8581 40.1707C12.4645 40.8064 11.8833 41.3207 11.098 41.7093L11.4209 42.3479C12.3112 41.9079 13.0011 41.3079 13.4741 40.5436L12.8581 40.1707ZM11.098 41.7093C10.3201 42.0939 9.38821 42.2929 8.29112 42.2929V43.0071C9.47625 43.0071 10.5233 42.7918 11.4209 42.3479L11.098 41.7093ZM22.8562 39.3929H23.2173V39.0357H22.8562V39.3929ZM22.8562 42.5V42.8571H23.2173V42.5H22.8562ZM17.8295 41.5357L17.5902 41.8032L17.5932 41.8057L17.8295 41.5357ZM16.7029 33.5857H17.064V33.2286H16.7029V33.5857ZM15.2295 33.5857H14.8684V33.9429H15.2295V33.5857ZM15.2295 30.5429V30.1857H14.8684V30.5429H15.2295ZM16.7029 30.5429V30.9H17.064V30.5429H16.7029ZM16.7029 27.6286V27.2714H16.3418V27.6286H16.7029ZM20.4079 27.6286H20.769V27.2714H20.4079V27.6286ZM20.4079 30.5429H20.0468V30.9H20.4079V30.5429ZM22.8345 30.5429H23.1957V30.1857H22.8345V30.5429ZM22.8345 33.5857V33.9429H23.1957V33.5857H22.8345ZM20.4079 33.5857V33.2286H20.0468V33.5857H20.4079ZM20.6679 39.1571L20.4238 39.4204L20.6679 39.1571ZM22.4951 39.3929V42.5H23.2173V39.3929H22.4951ZM22.8562 42.1429H20.9712V42.8571H22.8562V42.1429ZM20.9712 42.1429C19.6839 42.1429 18.7313 41.8354 18.0658 41.2657L17.5932 41.8057C18.43 42.5218 19.5719 42.8571 20.9712 42.8571V42.1429ZM18.0688 41.2682C17.4264 40.7061 17.064 39.7621 17.064 38.3429H16.3418C16.3418 39.8664 16.7305 41.0511 17.5903 41.8032L18.0688 41.2682ZM17.064 38.3429V33.5857H16.3418V38.3429H17.064ZM16.7029 33.2286H15.2295V33.9429H16.7029V33.2286ZM15.5907 33.5857V30.5429H14.8684V33.5857H15.5907ZM15.2295 30.9H16.7029V30.1857H15.2295V30.9ZM17.064 30.5429V27.6286H16.3418V30.5429H17.064ZM16.7029 27.9857H20.4079V27.2714H16.7029V27.9857ZM20.0468 27.6286V30.5429H20.769V27.6286H20.0468ZM20.4079 30.9H22.8345V30.1857H20.4079V30.9ZM22.4734 30.5429V33.5857H23.1957V30.5429H22.4734ZM22.8345 33.2286H20.4079V33.9429H22.8345V33.2286ZM20.0468 33.5857V38.3857H20.769V33.5857H20.0468ZM20.0468 38.3857C20.0468 38.7897 20.1438 39.1664 20.4238 39.4204L20.9119 38.8939C20.8453 38.8336 20.769 38.6961 20.769 38.3857H20.0468ZM20.4238 39.4204C20.6976 39.6686 21.0997 39.75 21.5345 39.75V39.0357C21.1605 39.0357 20.9848 38.96 20.9119 38.8939L20.4238 39.4204ZM21.5345 39.75H22.8562V39.0357H21.5345V39.75ZM27.2166 41.9214L27.0454 42.2357L27.0474 42.2368L27.2166 41.9214ZM24.985 39.7786L24.6711 39.9554L24.6732 39.9589L24.985 39.7786ZM25.0066 33.2857L25.3184 33.466L25.3196 33.4639L25.0066 33.2857ZM27.26 31.1214L27.4291 31.437L27.26 31.1214ZM33.6733 31.1214L33.5041 31.437L33.6733 31.1214ZM35.9266 33.2857L35.6137 33.4639L35.6149 33.466L35.9266 33.2857ZM35.905 39.7786L35.594 39.5968L35.5932 39.5982L35.905 39.7786ZM33.63 41.9214L33.4627 41.605L33.4608 41.6061L33.63 41.9214ZM32.2216 38.7286L31.9627 38.4796L31.9609 38.4814L31.9591 38.4832L32.2216 38.7286ZM32.2433 34.3143L31.9771 34.5556L31.9789 34.5576L31.9807 34.5595L32.2433 34.3143ZM28.6683 34.3143L28.931 34.5593L28.9345 34.5556L28.6683 34.3143ZM28.6466 38.7286L28.3767 38.9657L28.3785 38.9679L28.3804 38.97L28.6466 38.7286ZM30.4233 42.3143C29.2919 42.3143 28.282 42.0761 27.3858 41.6061L27.0474 42.2368C28.0578 42.7668 29.1857 43.0286 30.4233 43.0286V42.3143ZM27.3878 41.6071C26.5086 41.1386 25.8128 40.4714 25.2967 39.5982L24.6732 39.9589C25.2549 40.9429 26.0469 41.7043 27.0454 42.2357L27.3878 41.6071ZM25.2988 39.6018C24.8 38.7354 24.5444 37.7125 24.5444 36.5214H23.8222C23.8222 37.8161 24.101 38.9646 24.6711 39.9554L25.2988 39.6018ZM24.5444 36.5214C24.5444 35.347 24.8062 34.3324 25.3184 33.466L24.6949 33.1055C24.1093 34.0961 23.8222 35.2387 23.8222 36.5214H24.5444ZM25.3196 33.4639C25.8352 32.5781 26.5371 31.9048 27.4291 31.437L27.0908 30.8059C26.0762 31.338 25.2758 32.1076 24.6937 33.1075L25.3196 33.4639ZM27.4291 31.437C28.3254 30.9669 29.3353 30.7286 30.4666 30.7286V30.0143C29.2291 30.0143 28.1012 30.276 27.0908 30.8059L27.4291 31.437ZM30.4666 30.7286C31.598 30.7286 32.6078 30.9669 33.5041 31.437L33.8425 30.8059C32.832 30.276 31.7042 30.0143 30.4666 30.0143V30.7286ZM33.5041 31.437C34.3962 31.9048 35.098 32.5781 35.6137 33.4639L36.2397 33.1075C35.6575 32.1076 34.8571 31.338 33.8425 30.8059L33.5041 31.437ZM35.6149 33.466C36.127 34.3324 36.3888 35.347 36.3888 36.5214H37.111C37.111 35.2387 36.824 34.0961 36.2382 33.1055L35.6149 33.466ZM36.3888 36.5214C36.3888 37.6939 36.1205 38.7154 35.594 39.5968L36.2158 39.9604C36.816 38.9561 37.111 37.8061 37.111 36.5214H36.3888ZM35.5932 39.5982C35.0787 40.4686 34.3706 41.1357 33.4627 41.605L33.7972 42.2379C34.8248 41.7071 35.6334 40.9457 36.2166 39.9589L35.5932 39.5982ZM33.4608 41.6061C32.5645 42.0761 31.5546 42.3143 30.4233 42.3143V43.0286C31.6608 43.0286 32.7887 42.7668 33.7991 42.2368L33.4608 41.6061ZM30.4233 39.8571C31.2316 39.8571 31.9256 39.5586 32.4842 38.9739L31.9591 38.4832C31.5354 38.9271 31.0305 39.1429 30.4233 39.1429V39.8571ZM32.4805 38.9775C33.0711 38.3768 33.3411 37.5396 33.3411 36.5214H32.6188C32.6188 37.4175 32.3832 38.0518 31.9627 38.4796L32.4805 38.9775ZM33.3411 36.5214C33.3411 35.5059 33.0798 34.6702 32.5058 34.0691L31.9807 34.5595C32.389 34.987 32.6188 35.6227 32.6188 36.5214H33.3411ZM32.5095 34.073C31.9642 33.4846 31.2752 33.1857 30.4666 33.1857V33.9C31.0735 33.9 31.5691 34.1154 31.9771 34.5556L32.5095 34.073ZM30.4666 33.1857C29.6459 33.1857 28.949 33.4829 28.4021 34.073L28.9345 34.5556C29.3409 34.1171 29.8429 33.9 30.4666 33.9V33.1857ZM28.4055 34.0693C27.8436 34.6587 27.5922 35.4967 27.5922 36.5214H28.3144C28.3144 35.6033 28.5396 34.9699 28.931 34.5593L28.4055 34.0693ZM27.5922 36.5214C27.5922 37.5318 27.8362 38.3646 28.3767 38.9657L28.9165 38.4914C28.5326 38.0639 28.3144 37.4254 28.3144 36.5214H27.5922ZM28.3804 38.97C28.9257 39.5582 29.6147 39.8571 30.4233 39.8571V39.1429C29.8163 39.1429 29.3208 38.9275 28.9128 38.4871L28.3804 38.97ZM42.4205 32.5357H42.0593V33.7371L42.7231 32.7308L42.4205 32.5357ZM44.0455 30.9929L44.226 31.3021L44.2289 31.3006L44.2314 31.2991L44.0455 30.9929ZM46.2121 30.4143H46.5732V30.0572H46.2121V30.4143ZM46.2121 34.2929V34.65H46.5732V34.2929H46.2121ZM43.1138 34.8929L43.3467 35.1658L43.3492 35.1638L43.3518 35.1616L43.1138 34.8929ZM42.4205 42.5V42.8571H42.7816V42.5H42.4205ZM38.7155 42.5H38.3543V42.8571H38.7155V42.5ZM38.7155 30.5429V30.1857H38.3543V30.5429H38.7155ZM42.4205 30.5429H42.7816V30.1857H42.4205V30.5429ZM42.7231 32.7308C43.1271 32.1179 43.628 31.6439 44.226 31.3021L43.8649 30.6836C43.1629 31.0847 42.5804 31.6393 42.1182 32.3406L42.7231 32.7308ZM44.2314 31.2991C44.8226 30.9483 45.4798 30.7714 46.2121 30.7714V30.0572C45.3556 30.0572 44.5687 30.266 43.8598 30.6866L44.2314 31.2991ZM45.851 30.4143V34.2929H46.5732V30.4143H45.851ZM46.2121 33.9357H45.1938V34.65H46.2121V33.9357ZM45.1938 33.9357C44.2246 33.9357 43.4305 34.1444 42.8762 34.6241L43.3518 35.1616C43.7219 34.8414 44.3141 34.65 45.1938 34.65V33.9357ZM42.8809 34.6199C42.2973 35.1071 42.0593 35.9257 42.0593 36.95H42.7816C42.7816 36.0029 43.0062 35.4501 43.3467 35.1658L42.8809 34.6199ZM42.0593 36.95V42.5H42.7816V36.95H42.0593ZM42.4205 42.1429H38.7155V42.8571H42.4205V42.1429ZM39.0766 42.5V30.5429H38.3543V42.5H39.0766ZM38.7155 30.9H42.4205V30.1857H38.7155V30.9ZM42.0593 30.5429V32.5357H42.7816V30.5429H42.0593ZM59.3147 37.4V37.7571H59.6368L59.6736 37.4411L59.3147 37.4ZM50.9297 37.4V37.0429H50.5397L50.5697 37.4275L50.9297 37.4ZM51.6447 39.1143L51.3941 39.3711L51.3984 39.3757L51.4031 39.3796L51.6447 39.1143ZM55.1547 38.5357V38.1786H54.9239L54.8271 38.3857L55.1547 38.5357ZM59.098 38.5357L59.4479 38.6239L59.5628 38.1786H59.098V38.5357ZM57.993 40.6571L57.7168 40.4271L57.7135 40.4311L57.993 40.6571ZM56.0213 42.1357L56.1708 42.4607L56.0213 42.1357ZM50.193 41.9214L50.0197 42.2347L50.193 41.9214ZM48.0263 39.7786L48.3423 39.6054L48.0263 39.7786ZM48.0047 33.2643L47.6887 33.0913L47.6869 33.095L48.0047 33.2643ZM50.1713 31.1214L50.3447 31.4348L50.1713 31.1214ZM56.4763 31.1L56.3048 31.4143L56.4763 31.1ZM58.5997 33.1786L58.2841 33.352L58.2862 33.3558L58.5997 33.1786ZM55.588 35.3643V35.7214H55.9491V35.3643H55.588ZM54.938 33.8643L55.1745 33.5944L54.938 33.8643ZM51.7313 33.8429L51.5002 33.5685L51.4981 33.5704L51.4955 33.5724L51.7313 33.8429ZM50.9513 35.3643L50.5946 35.3106L50.5314 35.7214H50.9513V35.3643ZM59.0186 36.3286C59.0186 36.6564 58.998 37 58.9561 37.3589L59.6736 37.4411C59.7184 37.0571 59.7408 36.6864 59.7408 36.3286H59.0186ZM59.3147 37.0429H50.9297V37.7571H59.3147V37.0429ZM50.5697 37.4275C50.6321 38.2311 50.8947 38.8943 51.3941 39.3711L51.8956 38.8575C51.5573 38.5343 51.3428 38.0546 51.2897 37.3725L50.5697 37.4275ZM51.4031 39.3796C51.9076 39.8286 52.5225 40.05 53.2263 40.05V39.3357C52.6883 39.3357 52.2488 39.1714 51.8863 38.8489L51.4031 39.3796ZM53.2263 40.05C53.7395 40.05 54.1995 39.9425 54.5892 39.7089C54.9803 39.4743 55.2764 39.1264 55.4826 38.6857L54.8271 38.3857C54.6722 38.7164 54.466 38.9471 54.2147 39.0982C53.9612 39.2504 53.6376 39.3357 53.2263 39.3357V40.05ZM55.1547 38.8929H59.098V38.1786H55.1547V38.8929ZM58.7481 38.4475C58.5596 39.1804 58.2165 39.8393 57.7168 40.4271L58.2696 40.8871C58.8384 40.2179 59.2323 39.4625 59.4479 38.6239L58.7481 38.4475ZM57.7135 40.4311C57.2311 41.0146 56.6193 41.4746 55.8718 41.8107L56.1708 42.4607C57.0126 42.0825 57.7153 41.5568 58.2725 40.8832L57.7135 40.4311ZM55.8718 41.8107C55.1301 42.1443 54.2934 42.3143 53.3563 42.3143V43.0286C54.3837 43.0286 55.324 42.8414 56.1708 42.4607L55.8718 41.8107ZM53.3563 42.3143C52.225 42.3143 51.2312 42.0761 50.3663 41.6082L50.0197 42.2347C51.0037 42.7668 52.1192 43.0286 53.3563 43.0286V42.3143ZM50.3663 41.6082C49.5033 41.1411 48.8298 40.4761 48.3423 39.6054L47.7104 39.9514C48.2629 40.9382 49.0342 41.7018 50.0197 42.2347L50.3663 41.6082ZM48.3423 39.6054C47.8566 38.7382 47.6075 37.7143 47.6075 36.5214H46.8852C46.8852 37.8143 47.1561 38.9618 47.7104 39.9514L48.3423 39.6054ZM47.6075 36.5214C47.6075 35.3271 47.8501 34.3016 48.3228 33.4336L47.6869 33.095C47.1481 34.0841 46.8852 35.23 46.8852 36.5214H47.6075ZM48.3207 33.4373C48.8082 32.5668 49.4816 31.9017 50.3447 31.4348L49.998 30.8081C49.0125 31.3412 48.2412 32.1047 47.6887 33.0913L48.3207 33.4373ZM50.3447 31.4348C51.2092 30.9673 52.2098 30.7286 53.3563 30.7286V30.0143C52.1055 30.0143 50.9828 30.2756 49.998 30.8081L50.3447 31.4348ZM53.3563 30.7286C54.4747 30.7286 55.4544 30.9602 56.3048 31.4143L56.6479 30.7857C55.6787 30.2684 54.5783 30.0143 53.3563 30.0143V30.7286ZM56.3048 31.4143C57.1538 31.8674 57.8117 32.5112 58.2841 33.352L58.9153 33.0051C58.3765 32.046 57.6189 31.304 56.6479 30.7857L56.3048 31.4143ZM58.2862 33.3558C58.7705 34.1938 59.0186 35.1808 59.0186 36.3286H59.7408C59.7408 35.0763 59.4692 33.9633 58.9131 33.0014L58.2862 33.3558ZM55.9491 35.3643C55.9491 34.6448 55.6963 34.0415 55.1745 33.5944L54.7015 34.1342C55.0467 34.4299 55.2269 34.8267 55.2269 35.3643H55.9491ZM55.1745 33.5944C54.6668 33.1592 54.0378 32.95 53.313 32.95V33.6643C53.8886 33.6643 54.3425 33.8265 54.7015 34.1342L55.1745 33.5944ZM53.313 32.95C52.6168 32.95 52.0051 33.1524 51.5002 33.5685L51.9625 34.1172C52.3243 33.8191 52.7674 33.6643 53.313 33.6643V32.95ZM51.4955 33.5724C50.9983 33.9965 50.7054 34.5881 50.5946 35.3106L51.3085 35.418C51.3995 34.8262 51.627 34.4035 51.9671 34.1134L51.4955 33.5724ZM50.9513 35.7214H55.588V35.0071H50.9513V35.7214Z" fill="#050B43"/>
<mask id="mask0" mask-type="alpha" maskUnits="userSpaceOnUse" x="67" y="23" width="24" height="25">
<path fill-rule="evenodd" clip-rule="evenodd" d="M67.5278 35.5357C67.5278 32.6096 68.6227 29.9364 70.4293 27.8949L75.573 32.9821C75.5076 33.1666 75.4722 33.3649 75.4722 33.5714V37.1429C75.4722 37.4318 75.5416 37.7043 75.6647 37.9457L70.4044 43.1482C68.6126 41.1104 67.5278 38.4482 67.5278 35.5357ZM77.2251 38.9279L71.6896 44.4025C73.7338 46.1122 76.3772 47.1429 79.2639 47.1429C82.2225 47.1429 84.9254 46.06 86.9895 44.2732L81.4847 38.8289C81.2984 38.8936 81.0976 38.9286 80.8889 38.9286H77.2778C77.2601 38.9286 77.2427 38.9282 77.2251 38.9279ZM82.6641 37.47L88.2534 42.9979C89.9676 40.9804 91 38.3772 91 35.5357C91 32.6807 89.9578 30.0665 88.2292 28.0448L82.6937 33.5194C82.6941 33.5367 82.6944 33.554 82.6944 33.5714V37.1429C82.6944 37.2547 82.684 37.3639 82.6641 37.47ZM81.7007 31.976L86.961 26.7734C84.9005 25.0014 82.2087 23.9286 79.2639 23.9286C76.3909 23.9286 73.7587 24.9497 71.7188 26.6449L76.947 31.8157C77.0542 31.796 77.1647 31.7857 77.2778 31.7857H80.8889C81.181 31.7857 81.4566 31.8543 81.7007 31.976Z" fill="white"/>
</mask>
<g mask="url(#mask0)">
<path fill-rule="evenodd" clip-rule="evenodd" d="M67.5278 35.5357C67.5278 32.6096 68.6227 29.9364 70.4293 27.8949L75.573 32.9821C75.5076 33.1666 75.4722 33.3649 75.4722 33.5714V37.1429C75.4722 37.4318 75.5416 37.7043 75.6647 37.9457L70.4044 43.1482C68.6126 41.1104 67.5278 38.4482 67.5278 35.5357ZM77.2251 38.9279L71.6896 44.4025C73.7338 46.1122 76.3772 47.1429 79.2639 47.1429C82.2225 47.1429 84.9254 46.06 86.9895 44.2732L81.4847 38.8289C81.2984 38.8936 81.0976 38.9286 80.8889 38.9286H77.2778C77.2601 38.9286 77.2427 38.9282 77.2251 38.9279ZM82.6641 37.47L88.2534 42.9979C89.9676 40.9804 91 38.3772 91 35.5357C91 32.6807 89.9578 30.0665 88.2292 28.0448L82.6937 33.5194C82.6941 33.5367 82.6944 33.554 82.6944 33.5714V37.1429C82.6944 37.2547 82.684 37.3639 82.6641 37.47ZM81.7007 31.976L86.961 26.7734C84.9005 25.0014 82.2087 23.9286 79.2639 23.9286C76.3909 23.9286 73.7587 24.9497 71.7188 26.6449L76.947 31.8157C77.0542 31.796 77.1647 31.7857 77.2778 31.7857H80.8889C81.181 31.7857 81.4566 31.8543 81.7007 31.976Z" fill="white"/>
<path d="M70.4293 27.8948L70.6846 27.6423L70.4116 27.3724L70.1574 27.6596L70.4293 27.8948ZM75.573 32.9821L75.9139 33.0999L75.9886 32.8881L75.8283 32.7295L75.573 32.9821ZM75.6647 37.9457L75.92 38.1982L76.1045 38.0157L75.9872 37.785L75.6647 37.9457ZM70.4044 43.1482L70.1318 43.3828L70.386 43.6718L70.6597 43.401L70.4044 43.1482ZM77.2251 38.9278L77.2355 38.5707L77.0799 38.5664L76.9698 38.6753L77.2251 38.9278ZM71.6896 44.4025L71.4343 44.15L71.157 44.4243L71.4567 44.675L71.6896 44.4025ZM86.9895 44.2732L87.2275 44.5421L87.5178 44.2907L87.2452 44.0207L86.9895 44.2732ZM81.4847 38.8289L81.74 38.5764L81.5797 38.4178L81.3656 38.4918L81.4847 38.8289ZM88.2534 42.9978L87.9981 43.2503L88.2765 43.526L88.53 43.2278L88.2534 42.9978ZM82.6641 37.47L82.3092 37.405L82.2745 37.5896L82.4088 37.7225L82.6641 37.47ZM88.2292 28.0448L88.5047 27.8142L88.2512 27.5177L87.9739 27.7922L88.2292 28.0448ZM82.6937 33.5193L82.4384 33.2668L82.3283 33.3757L82.3326 33.5296L82.6937 33.5193ZM86.961 26.7734L87.2166 27.0259L87.4904 26.7552L87.1982 26.5039L86.961 26.7734ZM81.7007 31.976L81.5382 32.2949L81.7715 32.4112L81.956 32.2285L81.7007 31.976ZM71.7189 26.6449L71.4863 26.3714L71.1848 26.622L71.4635 26.8974L71.7189 26.6449ZM76.947 31.8156L76.6917 32.0682L76.826 32.201L77.0127 32.1668L76.947 31.8156ZM70.1574 27.6596C68.2955 29.7638 67.1667 32.5198 67.1667 35.5357H67.8889C67.8889 32.6994 68.9499 30.1089 70.7009 28.1301L70.1574 27.6596ZM75.8283 32.7295L70.6846 27.6423L70.1737 28.1474L75.3177 33.2346L75.8283 32.7295ZM75.8334 33.5714C75.8334 33.4056 75.8619 33.2471 75.9139 33.0999L75.2321 32.8642C75.1537 33.0861 75.1111 33.3242 75.1111 33.5714H75.8334ZM75.8334 37.1428V33.5714H75.1111V37.1428H75.8334ZM75.9872 37.785C75.889 37.5925 75.8334 37.3746 75.8334 37.1428H75.1111C75.1111 37.4889 75.1942 37.8164 75.3422 38.1068L75.9872 37.785ZM70.6597 43.401L75.92 38.1982L75.4094 37.6932L70.1491 42.8957L70.6597 43.401ZM67.1667 35.5357C67.1667 38.5378 68.285 41.2821 70.1318 43.3828L70.6767 42.9139C68.9401 40.9385 67.8889 38.3589 67.8889 35.5357H67.1667ZM76.9698 38.6753L71.4343 44.15L71.9453 44.655L77.4804 39.1803L76.9698 38.6753ZM71.4567 44.675C73.5634 46.4371 76.2887 47.5 79.2639 47.5V46.7857C76.4657 46.7857 73.9043 45.7868 71.9229 44.1296L71.4567 44.675ZM79.2639 47.5C82.3131 47.5 85.0998 46.3835 87.2275 44.5421L86.7519 44.0046C84.751 45.7364 82.1318 46.7857 79.2639 46.7857V47.5ZM87.2452 44.0207L81.74 38.5764L81.2294 39.0814L86.7342 44.526L87.2452 44.0207ZM81.3656 38.4918C81.2168 38.5432 81.0565 38.5714 80.8889 38.5714V39.2857C81.1388 39.2857 81.3797 39.2435 81.6039 39.166L81.3656 38.4918ZM80.8889 38.5714H77.2778V39.2857H80.8889V38.5714ZM77.2778 38.5714C77.2637 38.5714 77.2496 38.5711 77.2355 38.5707L77.215 39.285C77.2359 39.2853 77.2568 39.2857 77.2778 39.2857V38.5714ZM88.5087 42.7453L82.9194 37.2175L82.4088 37.7225L87.9981 43.2503L88.5087 42.7453ZM90.6389 35.5357C90.6389 38.29 89.6386 40.8125 87.9772 42.7682L88.53 43.2278C90.2966 41.1482 91.3611 38.4643 91.3611 35.5357H90.6389ZM87.9533 28.2754C89.6289 30.235 90.6389 32.7682 90.6389 35.5357H91.3611C91.3611 32.5931 90.2865 29.8979 88.5047 27.8142L87.9533 28.2754ZM82.949 33.7719L88.4845 28.2973L87.9739 27.7922L82.4384 33.2668L82.949 33.7719ZM82.3326 33.5296C82.333 33.5434 82.3333 33.5574 82.3333 33.5714H83.0556C83.0556 33.5506 83.0552 33.5298 83.0548 33.5091L82.3326 33.5296ZM82.3333 33.5714V37.1428H83.0556V33.5714H82.3333ZM82.3333 37.1428C82.3333 37.2328 82.325 37.3203 82.3092 37.405L83.0195 37.535C83.0433 37.4078 83.0556 37.2764 83.0556 37.1428H82.3333ZM86.7057 26.5209L81.4454 31.7234L81.956 32.2285L87.2166 27.0259L86.7057 26.5209ZM79.2639 24.2857C82.1185 24.2857 84.7268 25.3252 86.7241 27.0429L87.1982 26.5039C85.0742 24.6775 82.2994 23.5714 79.2639 23.5714V24.2857ZM71.951 26.9183C73.9285 25.2751 76.479 24.2857 79.2639 24.2857V23.5714C76.3028 23.5714 73.589 24.6241 71.4863 26.3714L71.951 26.9183ZM77.2023 31.5631L71.9742 26.3923L71.4635 26.8974L76.6917 32.0682L77.2023 31.5631ZM77.0127 32.1668C77.0983 32.1511 77.1868 32.1428 77.2778 32.1428V31.4286C77.1427 31.4286 77.0098 31.4408 76.8813 31.4644L77.0127 32.1668ZM77.2778 32.1428H80.8889V31.4286H77.2778V32.1428ZM80.8889 32.1428C81.1233 32.1428 81.3435 32.1977 81.5382 32.2949L81.8635 31.6571C81.57 31.5108 81.2388 31.4286 80.8889 31.4286V32.1428Z" fill="#000F92"/>
</g>
</g>
</g>
<defs>
<filter id="filter0_d" x="-2.20166" y="3.71429" width="121.541" height="51.4286" filterUnits="userSpaceOnUse" color-interpolation-filters="sRGB">
<feFlood flood-opacity="0" result="BackgroundImageFix"/>
<feColorMatrix in="SourceAlpha" type="matrix" values="0 0 0 0 0 0 0 0 0 0 0 0 0 0 0 0 0 0 127 0"/>
<feOffset dy="4"/>
<feGaussianBlur stdDeviation="2"/>
<feColorMatrix type="matrix" values="0 0 0 0 0 0 0 0 0 0 0 0 0 0 0 0 0 0 0.25 0"/>
<feBlend mode="normal" in2="BackgroundImageFix" result="effect1_dropShadow"/>
<feBlend mode="normal" in="SourceGraphic" in2="effect1_dropShadow" result="shape"/>
</filter>
<clipPath id="clip0">
<rect width="117" height="50" fill="white"/>
</clipPath>
</defs>
</svg>
