<svg width="20" height="20" viewBox="0 0 20 20" fill="none" xmlns="http://www.w3.org/2000/svg">
<g clip-path="url(#clip0)">
<path d="M19.4293 14.1334L15.0543 12.2584C14.8674 12.1787 14.6597 12.1619 14.4624 12.2106C14.2652 12.2592 14.089 12.3705 13.9605 12.5279L12.023 14.8951C8.98232 13.4614 6.53524 11.0143 5.10156 7.97361L7.46875 6.03611C7.62644 5.90786 7.73804 5.73172 7.78668 5.53437C7.83531 5.33702 7.81832 5.12919 7.73828 4.94236L5.86328 0.567358C5.77544 0.365955 5.62007 0.201517 5.42397 0.102397C5.22787 0.00327691 5.00332 -0.0243112 4.78906 0.0243895L0.726563 0.961889C0.519988 1.00959 0.335682 1.1259 0.203725 1.29184C0.0717677 1.45778 -4.75863e-05 1.66355 2.36571e-08 1.87556C2.36571e-08 11.8951 8.12109 20.0006 18.125 20.0006C18.3371 20.0007 18.5429 19.9289 18.709 19.797C18.875 19.665 18.9913 19.4806 19.0391 19.274L19.9766 15.2115C20.0249 14.9962 19.9968 14.7708 19.8969 14.574C19.797 14.3772 19.6317 14.2214 19.4293 14.1334V14.1334Z" fill="white"/>
</g>
<defs>
<clipPath id="clip0">
<rect width="20" height="20" fill="white"/>
</clipPath>
</defs>
</svg>
