<svg width="18" height="20" viewBox="0 0 18 20" fill="none" xmlns="http://www.w3.org/2000/svg">
<g clip-path="url(#clip0)">
<path d="M15.9503 5.92638C15.9616 6.10403 15.9616 6.28173 15.9616 6.45938C15.9616 11.8781 12.2956 18.1218 5.59503 18.1218C3.53073 18.1218 1.61309 17.4492 0 16.2817C0.293299 16.3198 0.575278 16.3325 0.879861 16.3325C2.58316 16.3325 4.15115 15.6853 5.40326 14.5812C3.80146 14.5431 2.4591 13.3629 1.9966 11.7386C2.22222 11.7766 2.44781 11.802 2.68472 11.802C3.01184 11.802 3.33899 11.7512 3.64354 11.6624C1.97406 11.2817 0.72191 9.63196 0.72191 7.63958V7.58884C1.20694 7.89341 1.77101 8.08376 2.36882 8.10911C1.38743 7.37306 0.744479 6.11673 0.744479 4.6954C0.744479 3.93399 0.924931 3.23603 1.2408 2.62688C3.03437 5.11419 5.73038 6.73853 8.75347 6.91622C8.69708 6.61165 8.66323 6.29442 8.66323 5.97716C8.66323 3.71825 10.2876 1.87817 12.3068 1.87817C13.3558 1.87817 14.3034 2.3731 14.9689 3.17259C15.7924 2.99493 16.582 2.65228 17.2814 2.18274C17.0106 3.13454 16.4353 3.93403 15.6796 4.44161C16.4128 4.35282 17.1235 4.12435 17.7777 3.80712C17.2815 4.61927 16.661 5.34259 15.9503 5.92638V5.92638Z" fill="white"/>
</g>
<defs>
<clipPath id="clip0">
<rect width="17.7778" height="20" fill="white"/>
</clipPath>
</defs>
</svg>
