<svg width="18" height="20" viewBox="0 0 18 20" fill="none" xmlns="http://www.w3.org/2000/svg">
<g clip-path="url(#clip0)">
<path d="M15.1151 3.79297C13.4524 2.15234 11.2381 1.25 8.88492 1.25C4.02778 1.25 0.0753968 5.14062 0.0753968 9.92188C0.0753968 11.4492 0.480159 12.9414 1.25 14.2578L0 18.75L4.67063 17.543C5.95635 18.2344 7.40476 18.5977 8.88095 18.5977H8.88492C13.7381 18.5977 17.7778 14.707 17.7778 9.92578C17.7778 7.60938 16.7778 5.43359 15.1151 3.79297V3.79297ZM8.88492 17.1367C7.56746 17.1367 6.27778 16.7891 5.15476 16.1328L4.88889 15.9766L2.11905 16.6914L2.85714 14.0313L2.68254 13.7578C1.94841 12.6094 1.56349 11.2852 1.56349 9.92188C1.56349 5.94922 4.84921 2.71484 8.88889 2.71484C10.8452 2.71484 12.6825 3.46484 14.0635 4.82812C15.4444 6.19141 16.2936 8 16.2897 9.92578C16.2897 13.9023 12.9206 17.1367 8.88492 17.1367V17.1367ZM12.9008 11.7383C12.6825 11.6289 11.5992 11.1055 11.3968 11.0352C11.1944 10.9609 11.0476 10.9258 10.9008 11.1445C10.754 11.3633 10.3333 11.8477 10.2024 11.9961C10.0754 12.1406 9.94444 12.1602 9.72619 12.0508C8.43254 11.4141 7.58333 10.9141 6.73016 9.47266C6.50397 9.08984 6.95635 9.11719 7.37698 8.28906C7.44841 8.14453 7.4127 8.01953 7.35714 7.91016C7.30159 7.80078 6.86111 6.73438 6.67857 6.30078C6.5 5.87891 6.31746 5.9375 6.18254 5.92969C6.05556 5.92188 5.90873 5.92188 5.7619 5.92188C5.61508 5.92188 5.37698 5.97656 5.1746 6.19141C4.97222 6.41016 4.40476 6.93359 4.40476 8C4.40476 9.06641 5.19444 10.0977 5.30159 10.2422C5.4127 10.3867 6.85317 12.5742 9.06349 13.5156C10.4603 14.1094 11.0079 14.1602 11.7063 14.0586C12.131 13.9961 13.0079 13.5352 13.1905 13.0273C13.373 12.5195 13.373 12.0859 13.3175 11.9961C13.2659 11.8984 13.119 11.8438 12.9008 11.7383Z" fill="white"/>
</g>
<defs>
<clipPath id="clip0">
<rect width="17.7778" height="20" fill="white"/>
</clipPath>
</defs>
</svg>
